<?xml version="1.0" standalone="no"?><!DOCTYPE svg PUBLIC "-//W3C//DTD SVG 1.1//EN" "http://www.w3.org/Graphics/SVG/1.1/DTD/svg11.dtd"><svg t="1716872751717" class="icon" viewBox="0 0 1024 1024" version="1.1" xmlns="http://www.w3.org/2000/svg" p-id="2785" xmlns:xlink="http://www.w3.org/1999/xlink" width="24" height="24"><path d="M0 557.06544v-2.730027c4.400043-11.210109 11.980117-19.970195 20.4302-28.420277 63.970625-63.970625 128.111251-127.781248 191.931874-191.891874 14.980146-15.050147 14.960146-16.750164 0.170002-31.72031-4.150041-4.200041-8.420082-8.300081-12.470122-12.600123-11.900116-12.620123-11.990117-17.500171-0.530005-29.930292 4.620045-5.020049 9.500093-9.780096 14.330139-14.600143 74.980732-74.820731 149.801463-149.801463 224.672195-224.732194 8.450083-8.450083 17.200168-16.030157 28.410277-20.4402h5.460053c13.660133 5.13005 23.840233 14.500142 32.180315 26.190256 2.640026 3.700036 5.970058 6.840067 9.190089 10.050098 59.200578 59.020576 118.191154 118.251155 177.321732 177.331732 15.290149 15.270149 16.890165 15.180148 32.73032-0.520005 4.840047-4.790047 9.610094-9.670094 14.700143-14.200139 7.260071-6.470063 14.580142-6.590064 21.930214-0.180002 4.800047 4.190041 9.22009 8.770086 13.710134 13.27013 76.350746 76.560748 152.961494 152.861493 229.412241 229.322239 8.450083 8.450083 16.010156 17.210168 20.420199 28.400278v5.460053c-4.410043 11.210109-11.990117 19.990195-20.4502 28.430278-63.430619 63.290618-126.771238 126.681237-190.161857 190.001855-15.510151 15.490151-15.430151 17.050167 0.070001 32.78032 22.860223 23.180226 22.910224 23.54023-0.130001 46.540455-76.960752 76.78075-153.691501 153.791502-230.572252 230.652252-8.460083 8.460083-17.220168 16.040157-28.430278 20.4502h-2.730026c-11.200109-4.400043-19.960195-11.970117-28.400278-20.4202-62.940615-63.010615-125.821229-126.071231-188.891844-188.951845-17.120167-17.060167-17.940175-17.080167-34.650339-0.480005q-25.210246 25.040245-50.700495-0.350003C172.721687 737.717204 96.650944 661.48646 20.420199 585.425717 11.970117 576.985635 4.400043 568.235549 0 557.02544z" fill="#52B44B" p-id="2786"></path><path d="M730.247131 513.735017c-33.000322 18.970185-64.380629 37.010361-95.760935 55.040537-76.020742 43.670426-152.031485 87.340853-228.062227 130.98128-12.440121 7.14007-12.580123 7.060069-12.580123-7.550074-0.02-119.141163 0.05-238.282327-0.130001-357.423491-0.01-9.680095-0.380004-14.820145 11.760115-7.820076 105.861034 61.020596 212.032071 121.491186 318.093106 182.141779 1.560015 0.890009 2.970029 2.05002 6.670065 4.630045z" fill="#FEFEFE" p-id="2787"></path></svg>