<?xml version="1.0" standalone="no"?><!DOCTYPE svg PUBLIC "-//W3C//DTD SVG 1.1//EN" "http://www.w3.org/Graphics/SVG/1.1/DTD/svg11.dtd"><svg height="1024" node-id="1" sillyvg="true" template-height="1024" template-width="1024" version="1.1" viewBox="0 0 1024 1024" width="1024" xmlns="http://www.w3.org/2000/svg" xmlns:xlink="http://www.w3.org/1999/xlink"><defs node-id="57"><linearGradient gradientUnits="objectBoundingBox" id="linearGradient-1" node-id="5" spreadMethod="pad" x1="0.9619581" x2="0.24539724" y1="0.4966515" y2="0.48493466"><stop offset="0" stop-color="#b1bac7"></stop><stop offset="1" stop-color="#838fa4" stop-opacity="0.08922059"></stop></linearGradient><linearGradient gradientUnits="objectBoundingBox" id="linearGradient-2" node-id="8" spreadMethod="pad" x1="1.1537404" x2="-0.10111415" y1="0.7163328" y2="0.2644256"><stop offset="0" stop-color="#dce2ec"></stop><stop offset="1" stop-color="#eef1f5"></stop></linearGradient><linearGradient gradientUnits="objectBoundingBox" id="linearGradient-3" node-id="11" spreadMethod="pad" x1="1.0422176" x2="-0.08817519" y1="0.79672736" y2="0.18477078"><stop offset="0" stop-color="#aeb7c4"></stop><stop offset="1" stop-color="#cfd5e0"></stop></linearGradient><linearGradient gradientUnits="objectBoundingBox" id="linearGradient-4" node-id="14" spreadMethod="pad" x1="0.9349009" x2="0.028237445" y1="0.8108553" y2="0.16976193"><stop offset="0" stop-color="#aeb7c4"></stop><stop offset="1" stop-color="#cfd5e0"></stop></linearGradient><linearGradient gradientUnits="objectBoundingBox" id="linearGradient-5" node-id="17" spreadMethod="pad" x1="0.7265842" x2="0.25421086" y1="0.8108553" y2="0.16976193"><stop offset="0" stop-color="#aeb7c4"></stop><stop offset="1" stop-color="#cfd5e0"></stop></linearGradient><linearGradient gradientUnits="objectBoundingBox" id="linearGradient-6" node-id="20" spreadMethod="pad" x1="1.0422176" x2="-0.08817519" y1="0.50106823" y2="0.49886516"><stop offset="0" stop-color="#aeb7c4"></stop><stop offset="1" stop-color="#cfd5e0"></stop></linearGradient><linearGradient gradientUnits="objectBoundingBox" id="linearGradient1" node-id="95" spreadMethod="pad" x1="1.1537404" x2="-0.10111415" y1="0.7637495" y2="0.21279146"><stop offset="0" stop-color="#dce2ec"></stop><stop offset="1" stop-color="#eef1f5"></stop></linearGradient><linearGradient gradientUnits="objectBoundingBox" id="linearGradient-7" node-id="23" spreadMethod="pad" x1="1.1537404" x2="-0.10111415" y1="0.7637495" y2="0.21279146"><stop offset="0" stop-color="#dce2ec"></stop><stop offset="1" stop-color="#eef1f5"></stop></linearGradient><linearGradient gradientUnits="objectBoundingBox" id="linearGradient-8" node-id="26" spreadMethod="pad" x1="0.75245947" x2="0.22614236" y1="0.8108553" y2="0.16976193"><stop offset="0" stop-color="#aeb7c4"></stop><stop offset="1" stop-color="#cfd5e0"></stop></linearGradient></defs><g node-id="113"><path d="M 0.00 0.00 L 1024.00 0.00 L 1024.00 1024.00 L 0.00 1024.00 Z" fill="none" group-id="1" id="bg" node-id="31" stroke="none" target-height="1024" target-width="1024" target-x="0" target-y="0"></path><g node-id="114"><path d="M 64.00 64.00 L 960.00 64.00 L 960.00 960.00 L 64.00 960.00 Z" fill="none" group-id="1,2" id="矩形" node-id="33" stroke="none" target-height="896" target-width="896" target-x="64" target-y="64"></path><g node-id="115"><path d="M 664.80 588.00 L 664.80 789.90 L 654.70 793.10 L 651.40 793.80 L 650.90 794.40 L 649.70 794.50 L 648.40 795.20 L 637.40 797.80 L 625.90 800.10 L 601.60 804.20 L 601.60 588.00 L 664.80 588.00 Z" fill="#4988fd" fill-rule="nonzero" group-id="1,2,3" id="Path" node-id="35" stroke="none" target-height="216.20001" target-width="63.200012" target-x="601.6" target-y="588"></path><path d="M 664.80 588.00 L 664.80 830.80 L 654.70 834.70 L 651.40 835.50 L 651.00 835.70 L 650.90 836.20 L 649.70 836.30 L 648.40 837.10 L 637.40 840.30 L 625.90 843.00 L 601.60 848.00 L 601.60 588.00 L 664.80 588.00 Z" fill="#ffffff" fill-rule="nonzero" group-id="1,2,3" id="Path" node-id="36" stroke="none" target-height="260" target-width="63.200012" target-x="601.6" target-y="588"></path><path d="M 717.60 588.00 L 717.60 761.90 L 700.10 769.20 L 699.20 769.20 L 687.60 773.60 L 673.20 778.30 L 654.30 783.60 L 654.30 588.70 L 717.60 588.70 L 717.60 588.00 Z" fill="#2767f4" fill-rule="nonzero" group-id="1,2,3" id="Path" node-id="37" stroke="none" target-height="195.59998" target-width="63.299988" target-x="654.3" target-y="588"></path><path d="M 717.60 588.00 L 717.60 800.90 L 700.10 809.70 L 699.20 809.70 L 687.60 815.10 L 673.20 820.90 L 654.30 827.40 L 654.30 588.90 L 717.60 588.90 L 717.60 588.00 Z" fill="#dae0eb" fill-rule="nonzero" group-id="1,2,3" id="Path" node-id="38" stroke="none" target-height="239.40002" target-width="63.299988" target-x="654.3" target-y="588"></path><g node-id="116"><path d="M 717.60 588.00 L 601.60 588.00 L 601.60 649.70 L 717.60 649.70 Z" fill="url(#linearGradient-1)" fill-opacity="0.7" fill-rule="nonzero" group-id="1,2,3,4" id="Path" node-id="39" stroke="none" target-height="61.700012" target-width="116" target-x="601.6" target-y="588"></path></g><path d="M 960.00 358.40 L 960.00 587.20 L 774.00 587.20 L 774.00 588.00 L 401.30 588.00 L 401.30 176.80 L 755.40 176.80 L 762.50 176.10 L 779.10 176.10 L 788.00 176.80 L 804.60 178.80 L 818.90 181.90 L 827.80 184.40 L 836.50 187.30 L 845.00 190.60 L 853.30 194.20 L 861.30 198.30 L 869.10 202.60 L 876.60 207.30 L 883.90 212.40 L 890.90 217.70 L 897.60 223.20 L 904.00 229.10 L 910.80 236.00 L 917.30 243.20 L 923.30 250.70 L 928.90 258.40 L 934.10 266.40 L 938.80 274.70 L 943.10 283.20 L 947.00 292.00 L 950.30 300.90 L 953.30 310.10 L 955.60 319.40 L 957.50 328.90 L 958.90 338.50 L 959.70 348.40 L 960.00 358.40 Z" fill="url(#linearGradient-2)" fill-rule="nonzero" group-id="1,2,3" id="Path" node-id="40" stroke="none" target-height="411.9" target-width="558.7" target-x="401.3" target-y="176.1"></path><path d="M 886.20 423.20 L 894.70 422.30 L 898.70 421.40 L 902.50 420.00 L 909.70 416.30 L 915.90 411.30 L 921.10 405.20 L 925.00 398.20 L 926.50 394.50 L 927.50 390.50 L 928.10 386.40 L 928.40 382.00 L 928.10 377.60 L 927.50 373.50 L 926.50 369.60 L 925.00 365.80 L 921.10 358.80 L 915.90 352.70 L 909.70 347.70 L 902.50 344.00 L 894.70 341.60 L 886.20 340.80 L 881.90 341.00 L 877.70 341.60 L 869.90 344.00 L 862.80 347.70 L 856.50 352.70 L 851.30 358.80 L 847.40 365.80 L 846.00 369.60 L 844.90 373.50 L 844.30 377.60 L 844.00 382.00 L 844.30 386.40 L 844.90 390.50 L 845.90 394.50 L 847.30 398.20 L 851.10 405.20 L 856.20 411.30 L 862.40 416.30 L 869.60 420.00 L 873.50 421.40 L 877.50 422.30 L 881.70 422.90 L 886.20 423.20 Z" fill="url(#linearGradient-3)" fill-rule="nonzero" group-id="1,2,3" id="Path" node-id="41" stroke="none" target-height="82.400024" target-width="84.400024" target-x="844" target-y="340.8"></path><path d="M 896.80 412.90 L 901.10 412.70 L 905.20 412.00 L 909.20 411.10 L 913.00 409.70 L 920.20 405.90 L 926.40 401.00 L 931.60 394.90 L 935.60 387.90 L 937.00 384.10 L 938.00 380.20 L 938.70 376.00 L 938.90 371.60 L 938.70 367.30 L 938.10 363.10 L 937.10 359.20 L 935.70 355.40 L 933.90 351.80 L 929.40 345.30 L 923.70 339.70 L 917.10 335.40 L 909.50 332.30 L 905.40 331.30 L 901.20 330.70 L 896.80 330.50 L 892.40 330.70 L 884.30 332.30 L 876.80 335.40 L 873.30 337.40 L 867.10 342.40 L 861.90 348.40 L 858.00 355.40 L 856.50 359.20 L 855.50 363.10 L 854.80 367.30 L 854.60 371.60 L 854.80 376.00 L 855.40 380.20 L 856.50 384.10 L 857.80 387.90 L 861.70 394.90 L 866.80 401.00 L 873.00 405.90 L 880.20 409.70 L 884.00 411.10 L 888.10 412.00 L 892.30 412.60 L 896.80 412.90 Z" fill="#d5dae8" fill-rule="nonzero" group-id="1,2,3" id="Path" node-id="42" stroke="none" target-height="82.399994" target-width="84.30005" target-x="854.6" target-y="330.5"></path><path d="M 896.80 412.90 L 901.10 412.70 L 905.20 412.00 L 909.20 411.10 L 913.00 409.70 L 920.20 405.90 L 926.50 401.00 L 931.60 394.90 L 935.60 387.90 L 937.00 384.10 L 938.00 380.20 L 938.70 376.00 L 938.90 371.60 L 938.70 367.30 L 938.00 363.10 L 937.00 359.20 L 935.60 355.40 L 931.60 348.40 L 926.50 342.40 L 920.20 337.40 L 913.00 333.60 L 905.20 331.30 L 901.10 330.70 L 896.80 330.50 L 888.30 331.30 L 884.30 332.30 L 880.50 333.60 L 873.30 337.40 L 867.00 342.40 L 861.90 348.40 L 857.90 355.40 L 856.50 359.20 L 855.50 363.10 L 854.80 367.30 L 854.60 371.60 L 854.80 376.00 L 855.40 380.20 L 856.40 384.10 L 857.80 387.90 L 861.70 394.90 L 866.80 401.00 L 872.90 405.90 L 880.10 409.70 L 884.00 411.10 L 888.00 412.00 L 892.30 412.60 L 896.80 412.90 Z" fill="#f5f9ff" fill-rule="nonzero" group-id="1,2,3" id="Path" node-id="43" stroke="none" target-height="82.399994" target-width="84.30005" target-x="854.6" target-y="330.5"></path><path d="M 891.50 382.00 L 894.50 381.70 L 897.20 381.00 L 899.60 379.90 L 901.80 378.40 L 903.70 376.60 L 905.20 374.40 L 906.30 372.00 L 907.00 369.40 L 907.30 366.50 L 907.00 363.60 L 906.30 361.00 L 905.20 358.60 L 903.70 356.40 L 901.80 354.60 L 899.60 353.10 L 897.20 352.00 L 894.50 351.30 L 891.50 351.10 L 888.50 351.30 L 885.80 352.00 L 883.40 353.10 L 881.20 354.60 L 879.30 356.40 L 877.80 358.60 L 876.60 361.00 L 875.90 363.60 L 875.70 366.50 L 875.90 369.40 L 876.60 372.00 L 877.80 374.40 L 879.30 376.60 L 881.20 378.40 L 883.40 379.90 L 885.80 381.00 L 888.50 381.70 L 891.50 382.00 Z" fill="#ced7e2" fill-rule="nonzero" group-id="1,2,3" id="Path" node-id="44" stroke="none" target-height="30.899994" target-width="31.599976" target-x="875.7" target-y="351.1"></path><path d="M 591.10 340.00 L 591.10 588.00 L 222.10 588.00 L 222.10 340.00 L 222.40 330.30 L 223.30 320.70 L 224.70 311.40 L 226.60 302.30 L 229.10 293.20 L 232.00 284.40 L 235.40 275.80 L 239.30 267.50 L 243.70 259.40 L 248.50 251.60 L 253.70 244.10 L 259.30 236.80 L 265.20 229.90 L 271.60 223.40 L 278.30 217.20 L 285.30 211.30 L 292.60 205.80 L 300.20 200.80 L 308.20 196.10 L 316.40 191.90 L 324.80 188.10 L 333.40 184.90 L 342.30 182.10 L 351.40 179.70 L 357.50 178.40 L 369.60 176.80 L 378.90 176.20 L 388.40 176.00 L 426.20 176.00 L 436.70 176.30 L 446.80 177.20 L 456.70 178.70 L 466.40 180.80 L 475.90 183.50 L 485.20 186.60 L 494.20 190.30 L 502.90 194.50 L 511.30 199.10 L 519.40 204.20 L 527.20 209.80 L 534.60 215.80 L 541.70 222.20 L 548.40 229.00 L 554.70 236.20 L 560.50 243.70 L 566.00 251.60 L 570.90 259.70 L 575.40 268.20 L 579.50 277.00 L 583.00 286.00 L 585.90 295.30 L 588.40 304.80 L 590.30 314.60 L 591.10 340.00 Z" fill="url(#linearGradient-4)" fill-rule="nonzero" group-id="1,2,3" id="Path" node-id="45" stroke="none" target-height="412" target-width="368.99997" target-x="222.1" target-y="176"></path><path d="M 591.10 382.70 L 588.70 323.50 L 586.70 313.80 L 584.20 304.40 L 581.10 295.20 L 577.50 286.30 L 573.30 277.60 L 568.70 269.20 L 563.50 261.10 L 557.90 253.30 L 551.80 245.80 L 545.30 238.80 L 538.40 232.10 L 531.10 225.70 L 523.50 219.80 L 515.40 214.30 L 507.10 209.20 L 498.40 204.60 L 489.40 200.40 L 480.20 196.80 L 470.70 193.70 L 460.90 191.10 L 450.90 189.00 L 440.80 187.50 L 430.40 186.60 L 419.80 186.30 L 380.90 186.30 L 371.00 186.60 L 361.50 187.30 L 342.70 190.00 L 338.10 193.70 L 433.80 569.50 L 589.50 577.70 L 591.10 382.70 Z" fill="url(#linearGradient-5)" fill-rule="nonzero" group-id="1,2,3" id="Path" node-id="46" stroke="none" target-height="391.40002" target-width="252.99997" target-x="338.1" target-y="186.3"></path><path d="M 590.30 314.60 L 588.40 304.80 L 585.90 295.30 L 582.90 286.00 L 579.40 277.00 L 575.30 268.20 L 570.80 259.70 L 565.80 251.60 L 560.40 243.70 L 554.50 236.20 L 548.20 229.00 L 541.50 222.20 L 534.40 215.80 L 526.90 209.80 L 519.10 204.20 L 511.00 199.10 L 502.50 194.50 L 493.80 190.30 L 484.90 186.60 L 475.60 183.50 L 466.10 180.80 L 456.50 178.70 L 446.60 177.20 L 436.60 176.30 L 426.20 176.00 L 388.40 176.00 L 378.90 176.20 L 363.50 177.40 L 351.40 179.70 L 342.50 182.00 L 333.90 184.60 L 325.50 187.70 L 317.40 191.20 L 309.50 195.20 L 301.80 199.50 L 294.40 204.30 L 287.30 209.40 L 280.40 214.80 L 273.90 220.60 L 267.60 226.80 L 261.80 233.20 L 256.30 240.00 L 251.10 247.00 L 246.30 254.40 L 241.90 262.00 L 237.90 269.80 L 234.30 277.90 L 231.20 286.20 L 228.40 294.80 L 226.20 303.40 L 224.50 312.30 L 223.20 321.30 L 222.40 330.60 L 222.10 340.00 L 222.10 588.00 L 591.10 588.00 L 591.10 340.00 L 590.30 314.60 Z M 575.90 573.00 L 237.20 573.00 L 237.20 340.00 L 237.50 331.70 L 238.20 323.60 L 239.30 315.60 L 240.90 307.70 L 242.90 299.90 L 245.30 292.20 L 248.20 284.70 L 251.40 277.50 L 255.00 270.40 L 258.90 263.40 L 263.30 256.70 L 267.90 250.30 L 272.90 244.10 L 278.30 238.20 L 283.90 232.50 L 289.90 227.10 L 296.10 222.10 L 302.60 217.40 L 309.40 213.00 L 316.50 209.00 L 323.80 205.30 L 331.20 202.10 L 339.00 199.20 L 346.90 196.80 L 355.20 194.70 L 365.10 192.90 L 376.00 192.00 L 388.40 191.80 L 426.20 191.80 L 435.20 192.00 L 443.90 192.80 L 452.50 194.00 L 460.80 195.70 L 469.00 197.80 L 477.10 200.40 L 485.00 203.40 L 492.60 206.80 L 500.00 210.60 L 507.20 214.90 L 514.10 219.50 L 520.80 224.40 L 527.10 229.70 L 533.10 235.40 L 538.90 241.40 L 544.30 247.70 L 549.30 254.30 L 553.90 261.20 L 558.20 268.40 L 562.20 275.90 L 565.60 283.60 L 568.70 291.50 L 571.30 299.70 L 573.50 308.10 L 575.20 316.80 L 575.20 573.00 L 575.90 573.00 Z" fill="#dae0eb" fill-rule="nonzero" group-id="1,2,3" id="Shape" node-id="47" stroke="none" target-height="412" target-width="368.99997" target-x="222.1" target-y="176"></path><path d="M 591.10 557.10 L 591.10 588.00 L 77.80 588.00 L 75.30 587.70 L 73.00 587.00 L 70.80 585.80 L 68.90 584.30 L 67.30 582.50 L 65.90 580.40 L 64.90 578.10 L 64.20 575.60 L 64.00 573.00 L 64.20 570.00 L 64.90 567.30 L 65.90 564.90 L 67.30 562.60 L 68.90 560.80 L 70.80 559.20 L 73.00 558.00 L 75.30 557.30 L 77.80 557.10 L 591.10 557.10 Z" fill="url(#linearGradient-6)" fill-rule="nonzero" group-id="1,2,3" id="Path" node-id="48" stroke="none" target-height="30.900024" target-width="527.1" target-x="64" target-y="557.1"></path><path d="M 696.50 361.40 L 896.60 361.40 L 900.50 362.00 L 903.60 363.70 L 905.90 366.40 L 906.60 368.00 L 907.30 371.70 L 906.60 375.40 L 904.90 378.40 L 902.10 380.60 L 900.50 381.40 L 896.60 382.00 L 696.50 382.00 L 696.50 361.40 Z" fill="#dae0eb" fill-rule="nonzero" group-id="1,2,3" id="Path" node-id="49" stroke="none" target-height="20.600006" target-width="210.79999" target-x="696.5" target-y="361.4"></path><path d="M 688.70 260.00 L 690.60 258.60 L 691.70 258.40 L 694.00 258.80 L 695.70 260.40 L 696.50 262.90 L 696.50 382.00 L 612.10 382.00 L 612.10 262.90 L 612.80 260.70 L 613.50 259.80 L 614.90 258.90 L 616.50 258.60 L 618.80 259.10 L 620.00 260.00 L 647.30 291.40 L 650.30 293.70 L 652.00 294.40 L 655.60 294.70 L 659.10 293.70 L 662.10 291.40 L 688.70 260.00 Z" fill="#f5f9ff" fill-rule="nonzero" group-id="1,2,3" id="Path" node-id="50" stroke="none" target-height="123.600006" target-width="84.400024" target-x="612.1" target-y="258.4"></path><path d="M 153.40 234.30 L 149.90 245.50 L 146.80 256.70 L 144.20 268.00 L 142.00 279.30 L 164.00 283.20 L 168.50 262.20 L 174.70 241.30 L 153.40 234.30 Z M 159.80 326.30 L 137.40 325.70 L 137.20 334.40 L 137.40 354.80 L 138.90 372.30 L 161.10 369.40 L 160.40 363.30 L 159.70 350.50 L 159.80 326.30 Z M 153.80 419.10 L 160.40 428.90 L 168.50 438.40 L 174.60 444.20 L 181.30 449.70 L 188.50 454.90 L 200.90 436.20 L 195.00 432.00 L 189.70 427.60 L 184.80 422.90 L 180.30 417.90 L 176.40 412.90 L 173.10 407.80 L 153.80 419.10 Z M 233.90 473.90 L 241.80 475.30 L 249.80 476.20 L 257.90 476.70 L 266.10 476.60 L 274.40 476.10 L 282.70 475.00 L 279.20 452.90 L 270.80 453.90 L 262.50 454.30 L 254.30 454.10 L 246.40 453.30 L 238.50 452.00 L 233.90 473.90 Z M 328.60 458.00 L 334.20 454.20 L 339.20 450.20 L 343.70 445.90 L 347.80 441.50 L 351.50 436.70 L 354.60 431.80 L 357.20 426.70 L 359.30 421.50 L 360.70 415.20 L 338.50 411.90 L 337.90 414.60 L 335.00 421.00 L 330.30 427.50 L 326.40 431.50 L 321.90 435.40 L 316.50 439.20 L 328.60 458.00 Z M 330.50 367.40 L 325.40 365.80 L 320.00 364.50 L 308.50 362.90 L 296.70 362.70 L 290.80 363.20 L 279.30 365.10 L 284.40 386.90 L 291.00 385.70 L 297.70 385.10 L 304.40 385.10 L 310.80 385.60 L 315.10 386.30 L 322.70 388.50 L 330.50 367.40 Z M 235.70 394.60 L 233.30 399.10 L 231.40 403.60 L 230.00 408.30 L 229.10 413.00 L 228.60 417.90 L 228.60 422.80 L 229.10 427.80 L 230.10 432.90 L 231.60 438.10 L 233.60 443.40 L 236.10 448.70 L 256.00 438.50 L 253.90 433.80 L 252.30 429.40 L 251.40 425.40 L 251.00 421.70 L 251.10 417.60 L 251.70 413.70 L 253.00 409.90 L 254.90 406.20 L 235.70 394.60 Z M 273.50 485.50 L 280.40 487.90 L 288.50 490.00 L 297.80 491.80 L 308.40 493.40 L 320.50 494.70 L 322.40 472.30 L 311.30 471.20 L 301.80 469.80 L 293.80 468.20 L 287.00 466.50 L 281.40 464.60 L 273.50 485.50 Z M 366.80 496.10 L 387.90 495.80 L 412.00 494.80 L 410.90 472.40 L 387.20 473.40 L 366.60 473.70 L 366.80 496.10 Z M 455.10 469.70 L 456.70 492.00 L 501.50 488.50 L 499.70 466.20 L 455.10 469.70 Z M 544.60 462.50 L 546.50 484.80 L 570.80 482.90 L 569.10 460.60 L 544.60 462.50 Z" fill="#dae0eb" fill-rule="nonzero" group-id="1,2,3" id="Path" node-id="51" stroke="none" target-height="261.8" target-width="433.59998" target-x="137.2" target-y="234.3"></path><g node-id="117"><path d="M 96.80 221.80 L 98.00 225.50 L 99.60 228.70 L 101.70 231.40 L 104.10 233.60 L 106.90 235.40 L 110.00 236.70 L 113.30 237.50 L 116.90 237.80 L 120.70 237.50 L 124.50 236.70 L 128.50 235.30 L 132.60 233.30 L 144.50 226.80 L 148.00 224.60 L 153.40 220.30 L 155.50 218.00 L 157.10 215.50 L 158.20 212.90 L 158.80 210.10 L 158.80 207.00 L 158.20 203.30 L 157.00 200.10 L 155.40 197.40 L 153.30 195.10 L 150.80 193.20 L 148.00 191.60 L 144.70 190.30 L 139.40 188.90 L 127.00 187.10 L 116.70 186.30 L 111.00 187.00 L 108.70 187.80 L 105.70 189.30 L 103.20 191.20 L 101.10 193.50 L 99.40 196.10 L 98.00 198.90 L 96.90 202.10 L 95.80 208.60 L 95.60 212.00 L 95.90 217.00 L 96.80 221.80 Z" fill="url(#linearGradient1)" fill-rule="nonzero" group-id="1,2,3,5" id="Path" node-id="53" stroke="none" target-height="51.5" target-width="63.200005" target-x="95.6" target-y="186.3"></path><path d="M 229.80 244.50 L 228.10 247.50 L 225.80 250.20 L 223.10 252.70 L 220.10 254.80 L 216.80 256.40 L 213.30 257.60 L 209.60 258.30 L 205.80 258.30 L 202.00 257.80 L 199.20 257.00 L 196.50 255.80 L 193.80 254.10 L 191.10 251.90 L 180.90 242.60 L 176.60 238.10 L 173.30 234.00 L 171.50 231.10 L 170.30 228.20 L 169.60 225.30 L 169.40 222.40 L 169.90 219.10 L 171.00 215.60 L 172.70 212.70 L 174.60 210.50 L 176.70 209.00 L 179.10 207.90 L 181.80 207.20 L 185.00 206.90 L 190.00 207.10 L 196.40 207.90 L 211.20 210.50 L 215.80 211.90 L 219.70 213.60 L 223.00 215.80 L 226.00 218.30 L 228.40 221.10 L 230.30 224.10 L 231.60 227.40 L 232.40 230.70 L 232.70 234.20 L 232.30 237.60 L 231.40 241.00 L 229.80 244.50 Z" fill="url(#linearGradient-7)" fill-rule="nonzero" group-id="1,2,3,5" id="Path" node-id="54" stroke="none" target-height="51.399994" target-width="63.300003" target-x="169.4" target-y="206.9"></path><path d="M 173.50 186.60 L 170.10 186.30 L 167.00 186.50 L 163.90 187.20 L 161.00 188.40 L 158.40 189.90 L 156.10 191.90 L 154.00 194.10 L 152.40 196.80 L 151.10 199.80 L 149.10 207.00 L 148.40 214.80 L 148.60 223.80 L 149.20 228.20 L 151.30 235.70 L 152.90 239.00 L 154.60 241.80 L 156.60 244.10 L 159.00 246.00 L 161.50 247.30 L 164.20 248.00 L 167.10 248.00 L 169.90 247.50 L 172.80 246.30 L 175.40 244.60 L 178.00 242.50 L 180.60 239.70 L 184.80 233.30 L 186.70 229.50 L 189.50 221.30 L 190.50 216.90 L 190.50 203.60 L 190.00 200.60 L 189.10 197.90 L 187.80 195.40 L 186.10 193.20 L 184.20 191.30 L 181.90 189.60 L 176.60 187.30 L 173.50 186.60 Z" fill="url(#linearGradient-8)" fill-rule="nonzero" group-id="1,2,3,5" id="Path" node-id="55" stroke="none" target-height="61.699997" target-width="42.100006" target-x="148.4" target-y="186.3"></path></g></g></g></g></svg>