<?xml version="1.0" standalone="no"?><!DOCTYPE svg PUBLIC "-//W3C//DTD SVG 1.1//EN" "http://www.w3.org/Graphics/SVG/1.1/DTD/svg11.dtd"><svg t="1722137271481" class="icon" viewBox="0 0 1024 1024" version="1.1" xmlns="http://www.w3.org/2000/svg" p-id="4502" xmlns:xlink="http://www.w3.org/1999/xlink" width="200" height="200"><path d="M512 512m-480 0a480 480 0 1 0 960 0 480 480 0 1 0-960 0Z" fill="#FFC107" p-id="4503"></path><path d="M597.248 384h-70.08v248.032h70.08c37.856 0 52.992-7.552 62.464-13.248 11.36-7.552 17.056-20.8 17.056-34.08v-149.568c0-17.056-7.584-32.192-17.056-37.888-15.136-9.472-20.8-13.248-62.464-13.248z m13.248 195.04c0 11.36-13.248 11.36-24.64 11.36v-168.544c11.392 0 24.64 0 24.64 11.36v145.824zM705.152 384v251.84h53.024s3.776-17.056 7.584-13.248c7.552 0 28.384 11.36 41.664 11.36 13.248 0 20.8 0 28.384-3.808 11.36-7.552 13.248-13.248 13.248-24.608v-147.68c0-20.832-20.8-34.08-37.856-34.08s-34.08 11.36-41.664 17.024V384h-64.384z m68.16 79.52c0-7.552 0-11.36 7.584-11.36 3.808 0 7.584 3.808 7.584 11.36v124.992c0 7.552 0 11.36-7.584 11.36-3.776 0-7.584-3.808-7.584-11.36v-124.992z m-278.336 172.32V384h-83.296l-15.168 119.296-20.8-119.296H299.936v251.84h54.912V495.68l24.608 140.128h37.856l24.64-140.128v140.128h52.992zM209.056 384h58.72v251.84H209.056V384z" fill="#000000" p-id="4504"></path></svg>