<?xml version="1.0" standalone="no"?><!DOCTYPE svg PUBLIC "-//W3C//DTD SVG 1.1//EN" "http://www.w3.org/Graphics/SVG/1.1/DTD/svg11.dtd"><svg t="1724004208953" class="icon" viewBox="0 0 1024 1024" version="1.1" xmlns="http://www.w3.org/2000/svg" p-id="10408" xmlns:xlink="http://www.w3.org/1999/xlink" width="200" height="200"><path d="M10.039216 10.039216h1003.921568v1003.921568H10.039216z" fill="#FFFFFF" p-id="10409"></path><path d="M190.745098 190.745098m60.235294 0l522.039216 0q60.235294 0 60.235294 60.235294l0 522.039216q0 60.235294-60.235294 60.235294l-522.039216 0q-60.235294 0-60.235294-60.235294l0-522.039216q0-60.235294 60.235294-60.235294Z" fill="#F8D714" p-id="10410"></path><path d="M321.254902 630.322196h32.687686c4.618039 0 8.332549 0.100392 11.103373 0.321255 2.871216 0.200784 5.903059 0.662588 9.095529 1.385412 3.292863 0.722824 5.903059 1.807059 7.850667 3.252706 2.068078 1.445647 3.814902 3.413333 5.260549 5.88298 1.325176 2.369255 2.007843 5.360941 2.007843 8.975059v20.881568c0 8.372706-3.252706 14.416314-9.738039 18.130824-6.364863 3.614118-15.821804 5.421176-28.350745 5.421176h-14.958432v36.201412H321.254902v-100.452392z m31.924706 54.814118c6.465255 0 11.64549-1.204706 15.560784-3.573961 3.915294-2.369255 5.862902-6.144 5.862902-11.304157v-18.271372a10.380549 10.380549 0 0 0-8.332549-10.681726 56.982588 56.982588 0 0 0-6.465255-1.224784 61.640784 61.640784 0 0 0-6.947137-0.321255h-16.805647v45.377255h17.126902zM408.254745 622.431373h13.874196v108.363294h-13.854117V622.431373zM469.172706 732.340706c-7.087686 0-12.589176-0.682667-16.504471-2.007843a14.315922 14.315922 0 0 1-8.31247-7.127843c-1.646431-3.413333-2.469647-8.312471-2.469647-14.717491 0-5.662118 0.76298-10.039216 2.309019-13.151372a13.95451 13.95451 0 0 1 8.171922-6.826667c3.895216-1.325176 9.396706-2.007843 16.50447-2.007843h22.347295v-11.90651a10.159686 10.159686 0 0 0-1.686589-6.344784c-1.044078-1.546039-2.831059-2.630275-5.421176-3.252706a48.248471 48.248471 0 0 0-10.922667-0.923608c-7.710118 0-16.263529 0.602353-25.6 1.847216v-10.199843c10.179765-0.943686 19.375686-1.40549 27.587765-1.40549 8.633725 0 15.018667 0.662588 19.134745 2.007843 4.096 1.244863 6.927059 3.45349 8.473098 6.666039 1.546039 3.212549 2.30902 8.151843 2.30902 14.858039v52.946824h-13.412393v-7.127843c-1.124392 5.782588-8.633725 8.673882-22.507921 8.673882z m2.309019-9.135686c5.039686 0 9.296314-0.361412 12.789961-1.084236 4.618039-0.943686 6.947137-3.092078 6.947138-6.505411v-20.439844h-21.423687c-4.417255 0-7.629804 0.361412-9.557333 1.084236a5.581804 5.581804 0 0 0-3.855059 3.71451 31.121569 31.121569 0 0 0-0.923608 8.975058c0 3.734588 0.341333 6.625882 1.064157 8.673883 0.722824 1.967686 2.007843 3.413333 3.855059 4.336941 1.847216 0.823216 4.618039 1.244863 8.332549 1.244863h2.770823zM546.896314 731.858824l-28.832628-75.996863h15.098981l20.821333 61.138823h0.301176l18.813491-61.138823h14.034823L549.667137 762.980392h-14.496627l11.725804-31.121568zM631.526902 732.340706c-22.809098 0-34.233725-7.629804-34.233726-22.90949V679.855686c0-9.075451 2.570039-15.580863 7.710118-19.496157 5.240471-4.015686 13.673412-6.023529 25.298824-6.023529 10.982902 0 18.913882 1.887373 23.732706 5.702275 4.939294 3.814902 7.408941 10.440784 7.408941 19.817411v16.564706h-50.115765v11.304157c0 5.160157 1.807059 8.874667 5.401098 11.143529 3.594039 2.268863 9.155765 3.413333 16.665098 3.413334 7.067608 0 15.460392-1.244863 25.098039-3.734588v10.681725a126.634667 126.634667 0 0 1-26.965333 3.112157z m16.042667-45.056v-11.765961c0-4.537725-1.40549-7.629804-4.176314-9.276235-2.670431-1.766902-7.288471-2.630275-13.854118-2.630275-6.384941 0-11.023059 0.863373-13.894274 2.610196-2.871216 1.66651-4.316863 4.758588-4.316863 9.296314v11.765961h36.241569zM682.586353 655.861961h13.111216v12.247843c0-2.389333 1.003922-4.618039 3.072-6.666039 2.048-2.168471 4.678275-3.875137 7.870745-5.12 3.172392-1.345255 6.324706-2.007843 9.396706-2.007843H722.823529v11.926588h-7.710117c-6.585725 0-11.364392 0.863373-14.336 2.610196-2.871216 1.66651-4.316863 4.718431-4.316863 9.155765v52.786196h-13.874196v-74.932706z" fill="#000000" p-id="10411"></path><path d="M512 572.235294A150.748863 150.748863 0 0 1 361.411765 421.647059v-3.011765a150.588235 150.588235 0 1 1 150.588235 153.6zM481.882353 353.882353v135.529412L572.235294 421.647059 481.882353 353.882353z" fill="#FFFFFF" p-id="10412"></path></svg>