<?xml version="1.0" standalone="no"?><!DOCTYPE svg PUBLIC "-//W3C//DTD SVG 1.1//EN" "http://www.w3.org/Graphics/SVG/1.1/DTD/svg11.dtd"><svg t="1724004509623" class="icon" viewBox="0 0 1024 1024" version="1.1" xmlns="http://www.w3.org/2000/svg" p-id="11429" xmlns:xlink="http://www.w3.org/1999/xlink" width="200" height="200"><path d="M874.666667 938.666667H149.333333a21.333333 21.333333 0 0 1-21.333333-21.333334v-42.666666a10.666667 10.666667 0 0 1 10.666667-10.666667h746.666666a10.666667 10.666667 0 0 1 10.666667 10.666667v42.666666a21.333333 21.333333 0 0 1-21.333333 21.333334z" fill="#D65E00" p-id="11430"></path><path d="M874.645333 896H149.354667a21.333333 21.333333 0 0 1-20.394667-27.584l80.106667-234.666667a21.312 21.312 0 0 1 20.373333-15.082666h565.184c9.344 0 17.578667 6.08 20.373333 14.976l80.021334 234.666666A21.333333 21.333333 0 0 1 874.645333 896z" fill="#FCA000" p-id="11431"></path><path d="M556.053333 73.92s-9.92-10.453333-40.085333-10.453333c-30.144 0-40 10.282667-40 10.282666s-199.616 638.485333-199.957333 649.877334l-0.384 1.706666h0.32s-0.021333-0.042667-0.021334 0.149334c0 66.368 107.605333 119.957333 240.362667 119.957333s240.362667-53.909333 240.362667-120.298667c-0.021333-12.757333-200.597333-651.221333-200.597334-651.221333z" fill="#F48200" p-id="11432"></path><path d="M696.490667 524.565333c-41.429333 28.48-107.669333 48.341333-180.714667 48.341334-73.344 0-138.88-18.410667-180.288-47.082667l-39.253333 128.938667C330.922667 693.034667 426.218667 725.333333 511.488 725.333333s189.994667-32.768 224.896-70.805333l-39.893333-129.962667zM431.978667 213.781333L387.648 356.266667c37.312 11.541333 81.386667 18.261333 128.618667 18.261333 47.018667 0 90.901333-6.634667 128.085333-18.069333l-44.352-142.549334a412.458667 412.458667 0 0 1-83.733333 8.469334 412.8 412.8 0 0 1-84.288-8.597334z" fill="#F7F8F8" p-id="11433"></path></svg>